# xmcd
#
# Track frame offsets: 
#        150
#        20649
#        39674
#        56007
#        75068
#        92136
#        108734
#        124059
#        144215
#        166392
#        186255
#        208152
#        228944
#        244727
#        272157
#        291771
#
# Disc length: 4405 seconds
#
# Revision: 7
# Processed by: cddbd v1.5.2PL0 Copyright (c) Steve Scherf et al.
# Submitted via: ExactAudioCopy v1.3
#
DISCID=e0113310
DTITLE=Robin Thicke - The Evolution Of Robin Thcke
DYEAR=2007
DGENRE=R&B
TTITLE0=Got 2 Be Down [Featuring Faith Evans]
TTITLE1=Complicated
TTITLE2=Would That Make U Love Me
TTITLE3=Lost Without U
TTITLE4=Ask Myself
TTITLE5=All Night Long [Featuring Lil' Wayne]
TTITLE6=Everything I Can't Have
TTITLE7=Teach U A Lesson
TTITLE8=I Need Love
TTITLE9=Wanna Love U Girl [Featuring Pharrell]
TTITLE10=Can U Believe
TTITLE11=Shooter [Featuring Lil' Wayne]
TTITLE12=Cocaine
TTITLE13=2 The Sky
TTITLE14=Lonely World
TTITLE15=Angels
EXTD=
EXTT0=
EXTT1=
EXTT2=
EXTT3=
EXTT4=
EXTT5=
EXTT6=
EXTT7=
EXTT8=
EXTT9=
EXTT10=
EXTT11=
EXTT12=
EXTT13=
EXTT14=
EXTT15=
PLAYORDER=
